# xmcd
#
# Track frame offsets:
#	150
#	20172
#	36670
#	56915
#	75440
#	99837
#	114385
#	135305
#	158340
#	173562
#
# Disc length: 2594 seconds
#
# Revision: 1
# Processed by: cddbd v1.4PL0 Copyright (c) Steve Scherf et al.
# Submitted via: audiograbber 1.80
#
DISCID=710a200a
DTITLE=Godji - Sledobedut na edin Godji
DYEAR=1900
DGENRE=
TTITLE0=Cha-Cha Chalga
TTITLE1=Kufar
TTITLE2=Sledobedut na edin Godji
TTITLE3=Hava yeah
TTITLE4=Suzdateliat
TTITLE5=Bacilicus Bulgaricum
TTITLE6=Lamja
TTITLE7=Mriemi me
TTITLE8=Pomnish li
TTITLE9=De se e chulo, videlo, sin bashta da kara...
EXTD=
EXTT0=
EXTT1=
EXTT2=
EXTT3=
EXTT4=
EXTT5=
EXTT6=
EXTT7=
EXTT8=
EXTT9=
PLAYORDER=
